<svg width="110" height="98" viewBox="0 0 110 98" fill="none" xmlns="http://www.w3.org/2000/svg">
<rect width="107.938" height="95.0106" transform="translate(1 1)" fill="white"/>
<path d="M44.389 1.90659C44.389 1.10802 44.4062 1.14266 44.0666 1.90659C43.8259 2.44822 44.0493 3.18085 44.2983 3.62911C44.9047 4.7206 45.5723 6.00774 45.8496 7.25547C46.0488 8.15203 46.1431 9.78109 46.7058 10.4688C47.1289 10.986 47.083 11.7966 47.3807 12.3324C47.6086 12.7426 48.0153 13.618 48.0153 14.0549C48.0153 16.8927 48.4495 19.8728 45.9201 21.9422C44.636 22.9928 43.1201 23.584 41.6692 24.3094C40.479 24.9045 39.4545 25.6607 38.3148 26.2939C37.1822 26.9231 35.7558 28.1977 34.4165 28.1977C32.8455 28.1977 31.2788 28.7417 29.7022 28.7417C28.2437 28.7417 26.6652 29.8223 25.3506 30.4138C23.8619 31.0837 22.4077 32.3711 21.6839 33.8186C21.0261 35.1343 20.1252 35.9245 18.7325 36.4376C17.9051 36.7424 16.713 36.7224 16.0026 37.2636C15.3618 37.7519 14.2859 37.5993 13.6556 38.0896C12.308 39.1377 9.62672 40.3441 9.20321 42.2498C9.0999 42.7147 8.59979 43.0917 8.39735 43.5191C8.18092 43.976 7.96324 44.4386 7.80303 44.9193C7.56664 45.6284 7.4211 46.3673 6.95688 46.9641C5.77299 48.4863 5.08727 50.5596 3.77374 51.9504C3.08645 52.6781 2.19569 54.7356 2.14188 55.758C2.10422 56.4736 1.762 57.1502 1.608 57.8432C1.2846 59.2985 1.05397 60.6917 1.05397 62.2049C1.05397 64.5909 0.864719 66.8395 1.195 69.3166C1.31249 70.1978 1.3672 71.0061 1.41661 71.8953C1.48376 73.104 2.01635 74.3215 2.15195 75.5419C2.25915 76.5067 2.72591 77.7423 3.08876 78.6041C3.51752 79.6224 3.2324 80.7783 3.87447 81.7872C4.47488 82.7307 4.96836 83.7001 5.58692 84.6279C6.47789 85.9644 7.49794 87.2913 8.58874 88.4859C9.34818 89.3177 10.2071 90.6256 11.2078 91.1553C11.9008 91.5222 12.7125 91.5324 13.4642 91.6691C15.0977 91.9661 16.6417 92.4458 18.3195 92.5656C19.1566 92.6254 20.0358 92.9252 20.737 93.3715C21.666 93.9626 22.766 93.9098 23.7187 94.3385C24.6204 94.7442 26.1026 94.5601 27.0731 94.5601C27.9542 94.5601 28.8165 94.7414 29.6619 94.7414C31.1078 94.7414 32.519 95.104 33.9531 95.104C35.227 95.104 36.6513 95.1937 37.9018 95.4264C39.1342 95.6557 40.6006 95.4667 41.8505 95.4667C43.3928 95.4667 44.9294 95.8293 46.4641 95.8293C49.4569 95.8293 52.4926 96.0106 55.5199 96.0106H63.2561C65.5886 96.0106 67.7457 95.6566 70.0455 95.4566C72.5929 95.2351 75.1271 94.7414 77.6911 94.7414C80.0993 94.7414 82.5142 94.4136 84.9005 94.0896L85.1452 94.0564C89.1168 93.5179 93.0069 94.7076 96.6992 92.6563C98.4697 91.6726 100.034 90.8727 101.464 89.4429C102.176 88.731 102.895 88.2298 103.408 87.3175C103.778 86.659 104.085 85.8767 104.587 85.3129C105.689 84.0728 106.786 82.5248 107.528 81.0418C108.499 79.1006 108.757 77.3376 108.757 75.1591C108.757 73.6858 108.938 72.2267 108.938 70.7168C108.938 69.6145 108.862 66.8298 107.941 66.0932C107.533 65.7664 106.993 64.4532 106.803 63.9576C106.535 63.2625 106.253 62.5905 105.957 61.9128C105.617 61.1367 105.352 59.9789 105.312 59.1628C105.254 57.9828 104.688 56.8325 104.576 55.6573C104.479 54.6333 104.056 53.6094 103.871 52.5951C103.734 51.8381 103.372 50.9203 103.317 50.1775C103.174 48.2375 100.229 46.5056 98.7844 45.7453C97.7318 45.1913 96.7409 44.3795 95.6214 43.9724C94.8403 43.6883 93.6555 42.8828 93.1635 42.1995C92.1144 40.7424 92.2721 38.747 91.3101 37.3039C90.941 36.7503 90.8181 36.0518 90.484 35.4504C90.1911 34.923 89.2986 34.1775 88.7212 33.9999C87.5616 33.6431 86.4279 33.2989 85.2258 33.053C84.0196 32.8063 82.7309 32.7541 81.5491 32.4587C80.6695 32.2388 79.6884 32.2623 78.789 32.1766C78.1152 32.1125 77.4954 31.8401 76.8046 31.8241C75.4522 31.7926 74.5383 31.1593 73.4804 30.5548C72.2504 29.8519 71.8405 28.3908 70.7808 27.4825C69.7479 26.5971 69.1103 24.9224 68.1416 23.8461C67.4707 23.1006 66.9547 22.2965 66.2378 21.5796C65.6009 20.9427 64.7646 20.2479 64.2937 19.4944C63.8747 18.8241 63.0821 18.2956 62.692 17.5805C62.2376 16.7474 61.7981 15.9989 61.3926 15.1428C61.0346 14.387 61.2516 13.0877 61.2516 12.2719C61.2516 11.1481 61.5192 10.3364 62.0171 9.34063C62.4045 8.56592 62.6051 7.60396 63.2058 6.9432C63.593 6.51723 64.1414 5.78054 64.334 5.2509C64.6258 4.44831 64.8779 3.84893 64.8779 2.9945C64.8779 2.04439 64.4406 2.22121 63.9713 1.63461C63.523 1.07425 62.4876 2.02035 62.1984 2.30952C61.7702 2.73773 61.0074 2.92169 60.4356 3.17582C59.6028 3.54598 58.2046 1.74766 57.7964 2.35989C57.4642 2.85818 56.6974 3.53845 56.084 3.53845C54.9963 3.53845 55.1571 3.49044 54.5831 2.77289C54.2105 2.30712 54.3427 1.72527 53.4448 1.72527C52.4899 1.72527 51.4126 2.13565 50.7351 2.81318C50.1551 3.3932 49.8251 3.89956 49.0126 3.53845C48.4726 3.29848 47.9616 2.87995 47.4714 2.59157C47.0828 2.363 46.2964 1.97903 46.0208 1.63461C45.718 1.25612 44.7736 1.40657 44.5703 1M48.6619 15.9468C49.063 16.3033 49.4135 16.647 49.919 16.8864C50.151 16.9963 50.3796 17.0659 50.6047 17.1785C50.9784 17.3654 51.4596 17.2979 51.8048 17.4896C52.1753 17.6955 52.9443 17.5468 53.373 17.5468C53.9734 17.5468 54.545 17.4325 55.1191 17.4325C56.2565 17.4325 57.2664 16.8636 58.3763 16.7468C58.6901 16.7137 59.6602 16.4847 59.862 16.2325C59.9776 16.088 60.8866 15.4949 60.5477 15.9468M56.3191 17.7753C56.2576 17.7822 56.1963 17.8137 56.1358 17.8629M56.1358 17.8629C55.8229 18.1175 55.5307 18.8462 55.3413 19.0896C54.9551 19.5862 54.6967 20.3004 54.4016 20.8611C54.2232 21.2 54.0412 21.7532 53.7413 22.0103C53.25 22.4314 53.3067 23.2512 52.8651 23.6929C52.4561 24.1019 52.0383 24.5578 51.627 24.9691C51.3162 25.2798 50.9725 25.8047 50.6047 26.0294C50.2127 26.269 49.6063 27.054 49.3539 27.4326C49.0108 27.9473 48.6783 28.2487 48.4333 28.8612M56.1358 17.8629C56.0812 17.8131 56.0275 17.7818 55.9762 17.7753M56.1358 17.8629C56.4565 18.1555 56.8082 19.0873 56.8905 19.3754C57.046 19.9196 57.4549 20.6255 57.8619 21.0325C58.7073 21.8779 59.8825 22.505 60.7509 23.2865C61.139 23.6359 62.0557 24.1114 62.262 24.5754C62.4962 25.1025 63.3029 25.3463 63.6271 25.8326C64.083 26.5165 65.3698 27.2983 65.1191 28.1755M36.776 37.0898C36.6976 36.4627 35.3374 38.1008 35.2331 38.1819C34.7668 38.5446 34.2076 39.1981 33.576 39.2613C33.0045 39.3184 32.2311 39.9928 31.7982 40.347C31.2324 40.8099 30.755 41.4867 30.3759 42.1185M24.6616 34.9184C24.6616 35.4375 23.8622 36.3271 23.5441 36.747C23.1674 37.2442 22.4844 37.5527 22.033 38.0041M16.7758 41.8899C15.9614 42.6803 15.2288 43.2696 14.7186 44.2899M61.3477 35.7184C61.3477 38.8777 65.7987 38.3424 67.6334 39.7184M51.4047 43.2613C51.6665 42.7669 52.2403 41.8406 52.8905 42.3978C53.6284 43.0304 53.9684 43.147 54.9476 43.147M80.7765 36.4041C81.9548 36.4041 82.6148 37.7272 83.1765 38.601C83.5169 39.1305 84.0121 39.8906 84.5988 40.1756C85.1067 40.4223 85.8247 40.2899 86.3765 40.2899M47.9761 34.9184C47.9155 34.4335 47.2237 35.2405 47.1698 35.3247C46.6435 36.147 46.3124 36.9595 46.0333 37.8898M9.57568 74.6902C9.57568 75.5713 10.5463 76.2746 11.2392 76.6903C11.911 77.0933 12.7469 77.0725 13.4551 77.3823C14.7349 77.9423 15.2196 79.2704 15.9758 80.4046M9.80431 82.0046C9.70668 82.0046 9.62465 81.9956 9.55903 81.9831M9.55903 81.9831C9.31168 81.9361 9.29734 81.8389 9.55903 81.9831ZM9.55903 81.9831C9.59688 82.004 9.6405 82.0299 9.69002 82.0618C10.2505 82.4221 11.0387 82.5362 11.525 82.9253C12.4713 83.6823 13.5861 83.7604 14.3758 84.7475M23.5187 76.6331C24.1568 76.9709 24.9154 78.2331 25.6394 78.2331C26.4571 78.2331 26.7256 78.2954 27.4045 78.8046M30.8331 85.7761C31.1427 85.7374 31.7649 85.1387 32.0902 84.9761C32.6018 84.7203 32.9293 84.9165 33.3474 85.23C34.3199 85.9594 35.0835 86.3475 36.3188 86.3475M57.3476 76.4045C56.9339 76.5992 56.319 76.7688 56.319 77.2807C56.319 78.2064 56.6619 79.0275 56.6619 79.9474M88.548 82.4617C89.2084 83.0488 90.7079 82.0824 91.2337 81.6617C91.5985 81.3699 91.7471 80.9327 92.0337 80.5824C92.5539 79.9466 93.2718 79.8331 94.0337 79.8331M103.634 70.0045C102.736 70.5032 102.095 71.7477 101.805 72.6902C101.578 73.4296 101.137 74.0674 100.891 74.8045M86.9479 89.319C87.987 89.319 89.83 89.587 90.2623 88.2904" stroke="black" stroke-width="2" stroke-linecap="round"/>
</svg>
